<svg xmlns="http://www.w3.org/2000/svg" viewBox="0 0 1024 1024">
  <defs>
    <linearGradient id="g" x1="120" y1="120" x2="900" y2="900" gradientUnits="userSpaceOnUse">
      <stop stop-color="#754EFF"/><stop offset="1" stop-color="#00DCB2"/>
    </linearGradient>
    <filter id="s" x="-20%" y="-20%" width="140%" height="140%">
      <feDropShadow dx="0" dy="18" stdDeviation="18" flood-opacity=".28"/>
    </filter>
  </defs>
  <rect x="105" y="105" width="814" height="814" rx="190" fill="url(#g)" filter="url(#s)"/>
  <path d="M170 460C235 245 465 150 700 190" fill="none" stroke="#fff" stroke-width="10" stroke-opacity=".32" stroke-linecap="round"/>
  <rect x="265" y="260" width="495" height="485" rx="66" fill="#0A1123" fill-opacity=".92" stroke="#fff" stroke-opacity=".7" stroke-width="10"/>
  <g fill="#fff" fill-opacity=".94">
    <rect x="315" y="305" width="395" height="78" rx="24"/>
    <rect x="315" y="420" width="395" height="78" rx="24"/>
    <rect x="315" y="535" width="395" height="78" rx="24"/>
  </g>
  <g fill="#142341" fill-opacity=".85">
    <rect x="450" y="335" width="220" height="18" rx="9"/>
    <rect x="450" y="450" width="220" height="18" rx="9"/>
    <rect x="450" y="565" width="220" height="18" rx="9"/>
  </g>
  <g>
    <circle cx="356" cy="344" r="14" fill="#00D1FF"/>
    <circle cx="400" cy="344" r="14" fill="#6850FF"/>
    <circle cx="356" cy="459" r="14" fill="#00D1FF"/>
    <circle cx="400" cy="459" r="14" fill="#6850FF"/>
    <circle cx="356" cy="574" r="14" fill="#00D1FF"/>
    <circle cx="400" cy="574" r="14" fill="#6850FF"/>
  </g>
  <g stroke="#fff" stroke-opacity=".48" stroke-width="7" fill="#fff">
    <line x1="405" y1="205" x2="512" y2="178"/>
    <line x1="512" y1="178" x2="623" y2="218"/>
    <line x1="512" y1="178" x2="470" y2="255"/>
    <line x1="623" y1="218" x2="590" y2="280"/>
    <line x1="470" y1="255" x2="590" y2="280"/>
    <line x1="590" y1="280" x2="675" y2="328"/>
    <circle cx="405" cy="205" r="15"/><circle cx="512" cy="178" r="15"/><circle cx="623" cy="218" r="15"/>
    <circle cx="470" cy="255" r="15"/><circle cx="590" cy="280" r="15"/><circle cx="675" cy="328" r="15"/>
  </g>
  <g fill="#fff" fill-opacity=".94">
    <circle cx="400" cy="737" r="80"/>
    <circle cx="524" cy="716" r="104"/>
    <circle cx="644" cy="741" r="78"/>
    <rect x="350" y="714" width="355" height="128" rx="58"/>
  </g>
  <text x="420" y="810" font-size="190" font-family="Arial, sans-serif" font-weight="800" fill="#19213E">AI</text>
  <g stroke="#fff" stroke-width="16" stroke-linecap="round" fill="#fff" fill-opacity=".86">
    <line x1="235" y1="502" x2="235" y2="372"/>
    <polygon points="235,340 198,390 272,390" stroke="none"/>
    <line x1="792" y1="390" x2="792" y2="520"/>
    <polygon points="792,552 755,502 829,502" stroke="none"/>
  </g>
</svg>
