<svg xmlns="http://www.w3.org/2000/svg" viewBox="0 0 1024 1024">
  <defs>
    <linearGradient id="g" x1="120" y1="120" x2="900" y2="900" gradientUnits="userSpaceOnUse">
      <stop stop-color="#00CDFF"/><stop offset="1" stop-color="#6C44FF"/>
    </linearGradient>
    <filter id="s" x="-20%" y="-20%" width="140%" height="140%">
      <feDropShadow dx="0" dy="18" stdDeviation="18" flood-opacity=".28"/>
    </filter>
  </defs>
  <rect x="105" y="105" width="814" height="814" rx="190" fill="url(#g)" filter="url(#s)"/>
  <path d="M190 430C245 245 440 165 635 170" fill="none" stroke="#fff" stroke-width="10" stroke-opacity=".36" stroke-linecap="round"/>
  <rect x="230" y="260" width="565" height="370" rx="52" fill="#08101F" fill-opacity=".92" stroke="#fff" stroke-opacity=".72" stroke-width="10"/>
  <rect x="260" y="300" width="505" height="275" rx="34" fill="#0C192E"/>
  <text x="292" y="405" font-size="92" font-family="Arial, sans-serif" font-weight="700" fill="#fff">&lt;</text>
  <text x="696" y="405" font-size="92" font-family="Arial, sans-serif" font-weight="700" fill="#fff">&gt;</text>
  <rect x="330" y="342" width="300" height="18" rx="9" fill="#77F5FF"/>
  <rect x="330" y="394" width="210" height="18" rx="9" fill="#77F5FF"/>
  <rect x="330" y="446" width="355" height="18" rx="9" fill="#77F5FF"/>
  <rect x="330" y="498" width="250" height="18" rx="9" fill="#77F5FF"/>
  <circle cx="683" cy="483" r="45" fill="#506EFF" stroke="#fff" stroke-opacity=".7" stroke-width="6"/>
  <circle cx="728" cy="420" r="22" fill="#fff" fill-opacity=".9"/>
  <rect x="360" y="610" width="305" height="180" rx="54" fill="#fff" fill-opacity=".94"/>
  <text x="430" y="760" font-size="190" font-family="Arial, sans-serif" font-weight="800" fill="#152A4B">AI</text>
  <rect x="235" y="675" width="105" height="60" rx="22" fill="#08101F" fill-opacity=".62" stroke="#fff" stroke-opacity=".35" stroke-width="3"/>
  <text x="258" y="716" font-size="42" font-family="Arial, sans-serif" font-weight="700" fill="#fff">lua</text>
</svg>
